<svg width="64" height="64" viewBox="0 0 64 64" fill="none" xmlns="http://www.w3.org/2000/svg">
<path d="M16.9788 16.6087C18.2275 15.3601 20.2517 15.3603 21.5005 16.6087L25.6485 20.7568C29.2608 24.369 35.1176 24.3689 38.73 20.7568L42.5086 16.9782C43.7574 15.7297 45.7822 15.7302 47.0309 16.9788C48.2795 18.2275 48.2793 20.2517 47.0309 21.5005L43.2523 25.2791C39.6402 28.8914 39.6402 34.7482 43.2523 38.3605L47.0309 42.1391C48.2793 43.3879 48.2795 45.4121 47.0309 46.6608C45.7822 47.9094 43.7574 47.9099 42.5086 46.6615L38.73 42.8828C35.1176 39.2707 29.2608 39.2706 25.6485 42.8828L21.5005 47.0309C20.2517 48.2793 18.2275 48.2795 16.9788 47.0309C15.7302 45.7822 15.7297 43.7574 16.9782 42.5086L21.1262 38.3605C24.7385 34.7482 24.7385 28.8914 21.1262 25.2791L16.9782 21.131C15.7297 19.8822 15.7302 17.8574 16.9788 16.6087Z" stroke="black" stroke-width="2.5"/>
<circle cx="31.8182" cy="10.3596" r="3.98256" transform="rotate(-45 31.8182 10.3596)" stroke="black" stroke-width="2.5"/>
<circle cx="53.2798" cy="31.8198" r="3.98256" transform="rotate(-45 53.2798 31.8198)" stroke="black" stroke-width="2.5"/>
<circle cx="10.3609" cy="31.8198" r="3.98256" transform="rotate(-45 10.3609 31.8198)" stroke="black" stroke-width="2.5"/>
<circle cx="31.8182" cy="53.28" r="3.98256" transform="rotate(-45 31.8182 53.28)" stroke="black" stroke-width="2.5"/>
</svg>
