<svg width="96" height="24" viewBox="0 0 96 24" fill="none" xmlns="http://www.w3.org/2000/svg">
<path d="M90.2418 6.96399C91.7778 6.96399 93.0098 7.47599 93.9378 8.49999C94.8658 9.50799 95.3298 10.9 95.3298 12.676V20.5H91.2498V13.228C91.2498 12.332 91.0178 11.636 90.5538 11.14C90.0898 10.644 89.4658 10.396 88.6818 10.396C87.8978 10.396 87.2738 10.644 86.8098 11.14C86.3458 11.636 86.1138 12.332 86.1138 13.228V20.5H82.0098V2.73999H86.1138V8.90799C86.5298 8.31599 87.0978 7.84399 87.8178 7.49199C88.5378 7.13999 89.3458 6.96399 90.2418 6.96399Z" fill="black"/>
<path d="M64.9044 13.78C64.9044 12.404 65.1604 11.196 65.6724 10.156C66.2004 9.116 66.9124 8.316 67.8084 7.756C68.7044 7.196 69.7044 6.916 70.8084 6.916C71.6884 6.916 72.4884 7.1 73.2084 7.468C73.9444 7.836 74.5204 8.332 74.9364 8.956V2.74H79.0404V20.5H74.9364V18.58C74.5524 19.22 74.0004 19.732 73.2804 20.116C72.5764 20.5 71.7524 20.692 70.8084 20.692C69.7044 20.692 68.7044 20.412 67.8084 19.852C66.9124 19.276 66.2004 18.468 65.6724 17.428C65.1604 16.372 64.9044 15.156 64.9044 13.78ZM74.9364 13.804C74.9364 12.78 74.6484 11.972 74.0724 11.38C73.5124 10.788 72.8244 10.492 72.0084 10.492C71.1924 10.492 70.4964 10.788 69.9204 11.38C69.3604 11.956 69.0804 12.756 69.0804 13.78C69.0804 14.804 69.3604 15.62 69.9204 16.228C70.4964 16.82 71.1924 17.116 72.0084 17.116C72.8244 17.116 73.5124 16.82 74.0724 16.228C74.6484 15.636 74.9364 14.828 74.9364 13.804Z" fill="black"/>
<path d="M56.5352 20.692C55.2232 20.692 54.0392 20.412 52.9832 19.852C51.9432 19.292 51.1192 18.492 50.5112 17.452C49.9192 16.412 49.6232 15.196 49.6232 13.804C49.6232 12.428 49.9272 11.22 50.5352 10.18C51.1432 9.124 51.9752 8.316 53.0312 7.756C54.0872 7.196 55.2712 6.916 56.5832 6.916C57.8952 6.916 59.0792 7.196 60.1352 7.756C61.1912 8.316 62.0232 9.124 62.6312 10.18C63.2392 11.22 63.5432 12.428 63.5432 13.804C63.5432 15.18 63.2312 16.396 62.6072 17.452C61.9992 18.492 61.1592 19.292 60.0872 19.852C59.0312 20.412 57.8472 20.692 56.5352 20.692ZM56.5352 17.14C57.3192 17.14 57.9832 16.852 58.5272 16.276C59.0872 15.7 59.3672 14.876 59.3672 13.804C59.3672 12.732 59.0952 11.908 58.5512 11.332C58.0232 10.756 57.3672 10.468 56.5832 10.468C55.7832 10.468 55.1192 10.756 54.5912 11.332C54.0632 11.892 53.7992 12.716 53.7992 13.804C53.7992 14.876 54.0552 15.7 54.5672 16.276C55.0952 16.852 55.7512 17.14 56.5352 17.14Z" fill="black"/>
<path d="M38.2544 9.00399C38.6384 8.37999 39.1904 7.87599 39.9104 7.49199C40.6304 7.10799 41.4544 6.91599 42.3824 6.91599C43.4864 6.91599 44.4864 7.19599 45.3824 7.75599C46.2784 8.31599 46.9824 9.11599 47.4944 10.156C48.0224 11.196 48.2864 12.404 48.2864 13.78C48.2864 15.156 48.0224 16.372 47.4944 17.428C46.9824 18.468 46.2784 19.276 45.3824 19.852C44.4864 20.412 43.4864 20.692 42.3824 20.692C41.4384 20.692 40.6144 20.508 39.9104 20.14C39.2064 19.756 38.6544 19.252 38.2544 18.628V20.5H34.1504V2.73999H38.2544V9.00399ZM44.1104 13.78C44.1104 12.756 43.8224 11.956 43.2464 11.38C42.6864 10.788 41.9904 10.492 41.1584 10.492C40.3424 10.492 39.6464 10.788 39.0704 11.38C38.5104 11.972 38.2304 12.78 38.2304 13.804C38.2304 14.828 38.5104 15.636 39.0704 16.228C39.6464 16.82 40.3424 17.116 41.1584 17.116C41.9744 17.116 42.6704 16.82 43.2464 16.228C43.8224 15.62 44.1104 14.804 44.1104 13.78Z" fill="black"/>
<path d="M27.3139 20.5L23.8819 15.34L20.8579 20.5H16.2019L21.6019 11.932L16.0819 3.652H20.8579L24.2419 8.74L27.2179 3.652H31.8739L26.5219 12.148L32.0899 20.5H27.3139Z" fill="#EA3B67"/>
<path d="M4.104 3.652V13.732C4.104 14.74 4.352 15.516 4.848 16.06C5.344 16.604 6.072 16.876 7.032 16.876C7.992 16.876 8.728 16.604 9.24 16.06C9.752 15.516 10.008 14.74 10.008 13.732V3.652H14.112V13.708C14.112 15.212 13.792 16.484 13.152 17.524C12.512 18.564 11.648 19.348 10.56 19.876C9.488 20.404 8.288 20.668 6.96 20.668C5.632 20.668 4.44 20.412 3.384 19.9C2.344 19.372 1.52 18.588 0.912 17.548C0.304 16.492 0 15.212 0 13.708V3.652H4.104Z" fill="black"/>
<path d="M14.084 23.5L29.584 0H34.584L19.084 23.5H14.084Z" fill="#EA3B67"/>
</svg>
