<svg width="900" height="360" viewBox="0 0 900 360" fill="none" xmlns="http://www.w3.org/2000/svg">
  <rect width="900" height="360" rx="28" fill="#F7F4EF"/>
  <rect x="180" y="120" width="540" height="110" rx="18" fill="white" stroke="#E8E2D9"/>
  <rect x="210" y="148" width="480" height="54" rx="8" fill="#F0EAE2" stroke="#E2DBD0"/>
  <g fill="#FFFFFF" stroke="#E2DBD0">
    <rect x="220" y="156" width="26" height="14" rx="2"/>
    <rect x="252" y="156" width="26" height="14" rx="2"/>
    <rect x="284" y="156" width="26" height="14" rx="2"/>
    <rect x="316" y="156" width="26" height="14" rx="2"/>
    <rect x="348" y="156" width="26" height="14" rx="2"/>
    <rect x="380" y="156" width="26" height="14" rx="2"/>
    <rect x="412" y="156" width="26" height="14" rx="2"/>
    <rect x="444" y="156" width="26" height="14" rx="2"/>
    <rect x="476" y="156" width="26" height="14" rx="2"/>
    <rect x="508" y="156" width="26" height="14" rx="2"/>
    <rect x="540" y="156" width="26" height="14" rx="2"/>
    <rect x="572" y="156" width="26" height="14" rx="2"/>
    <rect x="604" y="156" width="26" height="14" rx="2"/>
    <rect x="636" y="156" width="26" height="14" rx="2"/>
  </g>
  <g fill="#FFFFFF" stroke="#E2DBD0">
    <rect x="220" y="176" width="32" height="14" rx="2"/>
    <rect x="258" y="176" width="32" height="14" rx="2"/>
    <rect x="296" y="176" width="32" height="14" rx="2"/>
    <rect x="334" y="176" width="32" height="14" rx="2"/>
    <rect x="372" y="176" width="32" height="14" rx="2"/>
    <rect x="410" y="176" width="32" height="14" rx="2"/>
    <rect x="448" y="176" width="32" height="14" rx="2"/>
    <rect x="486" y="176" width="32" height="14" rx="2"/>
    <rect x="524" y="176" width="32" height="14" rx="2"/>
    <rect x="562" y="176" width="32" height="14" rx="2"/>
    <rect x="600" y="176" width="32" height="14" rx="2"/>
    <rect x="638" y="176" width="32" height="14" rx="2"/>
  </g>
  <rect x="560" y="198" width="60" height="12" rx="6" fill="#E7E1D8"/>
  <rect x="460" y="210" width="120" height="8" rx="4" fill="#E7E1D8"/>
  <rect x="310" y="234" width="180" height="26" rx="12" fill="#F1EAE1" stroke="#E5DDD2"/>
  <rect x="342" y="238" width="52" height="18" rx="9" fill="white" stroke="#E2DBD0"/>
  <rect x="404" y="238" width="52" height="18" rx="9" fill="white" stroke="#E2DBD0"/>
  <path d="M450 260c10 10 22 18 36 18s26-8 36-18" stroke="#E2DBD0" strokeWidth="4" strokeLinecap="round"/>
  <rect x="138" y="170" width="80" height="80" rx="20" fill="white" stroke="#E5DDD2"/>
  <path d="M162 210l16-18 12 14" stroke="#2D9C5E" strokeWidth="4" strokeLinecap="round" stroke-linejoin="round"/>
  <path d="M180 188c-10 0-18 8-18 18" stroke="#2D9C5E" strokeWidth="3" strokeLinecap="round"/>
  <rect x="682" y="170" width="80" height="80" rx="20" fill="white" stroke="#E5DDD2"/>
  <path d="M706 200h36M706 214h28M706 228h20" stroke="#111827" strokeWidth="3" strokeLinecap="round"/>
  <rect x="728" y="186" width="14" height="10" rx="3" fill="#F74D7B"/>
  <rect x="400" y="262" width="110" height="24" rx="12" fill="#F74D7B"/>
  <rect x="180" y="120" width="540" height="14" rx="7" fill="#EDE7DE"/>
  <circle cx="204" cy="127" r="3" fill="#E0416E"/>
  <circle cx="214" cy="127" r="3" fill="#F1A13B"/>
  <circle cx="224" cy="127" r="3" fill="#34D399"/>
</svg>
