<svg width="520" height="260" viewBox="0 0 520 260" fill="none" xmlns="http://www.w3.org/2000/svg">
  <rect width="520" height="260" rx="24" fill="#F9F7F2"/>
  <rect x="78" y="120" width="364" height="94" rx="18" fill="#FFFFFF" stroke="#E5DDD2" stroke-width="2"/>
  <path d="M140 192c0 14 10 26 24 26h192c14 0 24-12 24-26" stroke="#E5DDD2" stroke-width="3" stroke-linecap="round"/>
  <rect x="106" y="132" width="70" height="68" rx="12" fill="#F3F4F6" stroke="#E5DDD2"/>
  <rect x="344" y="132" width="70" height="68" rx="12" fill="#F3F4F6" stroke="#E5DDD2"/>
  <path d="M234 120c-8 10-10 30-4 50 6 18 18 30 30 30 14 0 18-14 18-26 0-12-4-22-4-34 0-10 4-18 6-22" stroke="#1F2937" stroke-width="3" stroke-linecap="round"/>
  <path d="M260 98c-12 0-22 10-22 22 0 14 12 22 22 22 12 0 22-8 22-22 0-12-10-22-22-22z" stroke="#1F2937" stroke-width="3"/>
  <path d="M252 104c4-6 12-10 22-6" stroke="#1F2937" stroke-width="3" stroke-linecap="round"/>
  <path d="M260 144c4 6 12 10 20 12" stroke="#1F2937" stroke-width="3" stroke-linecap="round"/>
  <path d="M196 142h32" stroke="#1F2937" stroke-width="3" stroke-linecap="round"/>
  <path d="M292 152h32" stroke="#1F2937" stroke-width="3" stroke-linecap="round"/>
  <path d="M214 154l-10 44" stroke="#1F2937" stroke-width="3" stroke-linecap="round"/>
  <path d="M292 166l12 32" stroke="#1F2937" stroke-width="3" stroke-linecap="round"/>
  <path d="M222 178l36-18" stroke="#E0416E" stroke-width="3" stroke-linecap="round"/>
  <circle cx="188" cy="92" r="8" fill="#F74D7B"/>
  <circle cx="332" cy="82" r="6" fill="#34D399"/>
  <circle cx="352" cy="104" r="10" fill="#FBBF24"/>
  <path d="M338 118c12 6 24 8 36 4" stroke="#1F2937" stroke-width="3" stroke-linecap="round" stroke-dasharray="5 9"/>
  <path d="M160 222c0-10 14-18 32-18h140c18 0 32 8 32 18" stroke="#1F2937" stroke-width="3" stroke-linecap="round"/>
  <path d="M228 86c-4-10-10-20-22-20-10 0-18 8-18 18 0 8 4 14 8 20" stroke="#1F2937" stroke-width="3" stroke-linecap="round" stroke-dasharray="6 10"/>
</svg>
