<svg width="960" height="560" viewBox="0 0 960 560" fill="none" xmlns="http://www.w3.org/2000/svg">
  <rect width="960" height="560" rx="24" fill="#F9F7F2"/>
  <rect x="30" y="40" width="900" height="480" rx="18" fill="#FFFFFF" stroke="#E6DFD5"/>
  <rect x="30" y="40" width="900" height="46" rx="12" fill="#111827"/>
  <circle cx="54" cy="62" r="6" fill="#F87171"/>
  <circle cx="72" cy="62" r="6" fill="#FBBF24"/>
  <circle cx="90" cy="62" r="6" fill="#34D399"/>
  <rect x="136" y="56" width="120" height="12" rx="6" fill="#E5E7EB"/>
  <rect x="862" y="56" width="40" height="12" rx="6" fill="#F3F4F6"/>
  <rect x="70" y="108" width="180" height="32" rx="10" fill="#F3F4F6"/>
  <rect x="70" y="150" width="820" height="80" rx="16" fill="#F3F0E9" stroke="#E6DFD5"/>
  <rect x="92" y="170" width="260" height="12" rx="6" fill="#111827" opacity="0.5"/>
  <rect x="92" y="190" width="360" height="10" rx="5" fill="#D1D5DB"/>
  <rect x="92" y="210" width="220" height="10" rx="5" fill="#D1D5DB"/>
  <rect x="470" y="170" width="140" height="32" rx="10" fill="#F74D7B" opacity="0.85"/>
  <rect x="640" y="170" width="120" height="32" rx="10" fill="#111827" opacity="0.85"/>
  <rect x="70" y="252" width="390" height="240" rx="16" fill="#FFFFFF" stroke="#E6DFD5"/>
  <rect x="96" y="276" width="160" height="12" rx="6" fill="#9CA3AF"/>
  <rect x="96" y="300" width="180" height="10" rx="5" fill="#D1D5DB"/>
  <rect x="96" y="322" width="200" height="10" rx="5" fill="#D1D5DB"/>
  <rect x="96" y="344" width="150" height="10" rx="5" fill="#D1D5DB"/>
  <rect x="96" y="378" width="260" height="80" rx="12" fill="#F3F4F6"/>
  <rect x="482" y="252" width="408" height="110" rx="16" fill="#FFFFFF" stroke="#E6DFD5"/>
  <rect x="506" y="276" width="180" height="10" rx="5" fill="#9CA3AF"/>
  <rect x="506" y="296" width="220" height="10" rx="5" fill="#D1D5DB"/>
  <rect x="506" y="316" width="260" height="10" rx="5" fill="#D1D5DB"/>
  <rect x="506" y="336" width="120" height="10" rx="5" fill="#D1D5DB"/>
  <rect x="482" y="376" width="408" height="116" rx="16" fill="#F8FAFC" stroke="#E5E7EB"/>
  <rect x="506" y="400" width="220" height="10" rx="5" fill="#9CA3AF"/>
  <rect x="506" y="420" width="150" height="10" rx="5" fill="#D1D5DB"/>
  <rect x="506" y="440" width="190" height="10" rx="5" fill="#D1D5DB"/>
  <rect x="506" y="460" width="240" height="10" rx="5" fill="#D1D5DB"/>
  <rect x="762" y="400" width="96" height="32" rx="10" fill="#111827" opacity="0.85"/>
</svg>
