<svg width="960" height="560" viewBox="0 0 960 560" fill="none" xmlns="http://www.w3.org/2000/svg">
  <rect width="960" height="560" rx="24" fill="#F9F7F2"/>
  <rect x="26" y="34" width="908" height="492" rx="18" fill="#FFFFFF" stroke="#E6DFD5"/>
  <rect x="26" y="34" width="908" height="48" rx="14" fill="#111827"/>
  <circle cx="52" cy="58" r="6" fill="#F87171"/>
  <circle cx="70" cy="58" r="6" fill="#FBBF24"/>
  <circle cx="88" cy="58" r="6" fill="#34D399"/>
  <rect x="134" y="52" width="120" height="12" rx="6" fill="#E5E7EB"/>
  <rect x="860" y="51" width="40" height="14" rx="7" fill="#F3F4F6"/>
  <rect x="66" y="112" width="230" height="390" rx="16" fill="#F8FAFC" stroke="#E5E7EB"/>
  <rect x="96" y="138" width="170" height="14" rx="7" fill="#1F2937" opacity="0.6"/>
  <rect x="96" y="166" width="140" height="10" rx="5" fill="#D1D5DB"/>
  <rect x="96" y="194" width="140" height="10" rx="5" fill="#D1D5DB"/>
  <rect x="96" y="232" width="90" height="12" rx="6" fill="#F74D7B" opacity="0.8"/>
  <rect x="316" y="112" width="296" height="210" rx="18" fill="#F3F0E9" stroke="#E6DFD5"/>
  <rect x="338" y="136" width="120" height="10" rx="5" fill="#111827" opacity="0.45"/>
  <rect x="338" y="156" width="220" height="10" rx="5" fill="#D1D5DB"/>
  <rect x="338" y="176" width="180" height="10" rx="5" fill="#D1D5DB"/>
  <rect x="338" y="196" width="250" height="120" rx="12" fill="#FFFFFF" stroke="#E6DFD5"/>
  <rect x="606" y="112" width="278" height="210" rx="18" fill="#F3F4F6" stroke="#E5E7EB"/>
  <rect x="626" y="136" width="120" height="10" rx="5" fill="#111827" opacity="0.55"/>
  <rect x="626" y="156" width="160" height="10" rx="5" fill="#D1D5DB"/>
  <rect x="626" y="176" width="200" height="10" rx="5" fill="#D1D5DB"/>
  <rect x="626" y="202" width="200" height="90" rx="12" fill="#FFFFFF" stroke="#E5E7EB"/>
  <rect x="316" y="344" width="568" height="158" rx="18" fill="#FFFFFF" stroke="#E6DFD5"/>
  <rect x="336" y="366" width="120" height="12" rx="6" fill="#9CA3AF"/>
  <rect x="336" y="388" width="180" height="10" rx="5" fill="#D1D5DB"/>
  <rect x="336" y="410" width="230" height="10" rx="5" fill="#D1D5DB"/>
  <rect x="336" y="432" width="190" height="10" rx="5" fill="#D1D5DB"/>
  <rect x="680" y="366" width="160" height="12" rx="6" fill="#F74D7B" opacity="0.85"/>
  <rect x="680" y="388" width="200" height="10" rx="5" fill="#D1D5DB"/>
  <rect x="680" y="410" width="120" height="10" rx="5" fill="#D1D5DB"/>
  <rect x="680" y="432" width="180" height="10" rx="5" fill="#D1D5DB"/>
</svg>
