<svg width="960" height="560" viewBox="0 0 960 560" fill="none" xmlns="http://www.w3.org/2000/svg">
  <rect width="960" height="560" rx="24" fill="#F9F7F2"/>
  <rect x="24" y="28" width="912" height="504" rx="18" fill="white" stroke="#E6DFD5"/>
  <rect x="24" y="28" width="912" height="44" rx="12" fill="#1F2937"/>
  <circle cx="48" cy="50" r="6" fill="#F87171"/>
  <circle cx="66" cy="50" r="6" fill="#FBBF24"/>
  <circle cx="84" cy="50" r="6" fill="#34D399"/>
  <rect x="140" y="45" width="110" height="10" rx="5" fill="#E5E7EB"/>
  <rect x="870" y="44" width="36" height="12" rx="6" fill="#111827"/>
  <rect x="64" y="100" width="340" height="190" rx="16" fill="#ECF7FF" stroke="#D5E8FF"/>
  <text x="86" y="142" fill="#EA580C" font-family="Arial" font-size="20" font-weight="700">You focus on Your Home</text>
  <text x="86" y="168" fill="#EA580C" font-family="Arial" font-size="20" font-weight="700">We’ll take care of The Loan</text>
  <rect x="86" y="190" width="120" height="10" rx="5" fill="#1F2937" opacity="0.2"/>
  <rect x="86" y="206" width="160" height="10" rx="5" fill="#1F2937" opacity="0.15"/>
  <rect x="86" y="222" width="92" height="34" rx="10" fill="#1F2937"/>
  <rect x="188" y="222" width="102" height="34" rx="10" fill="#F74D7B"/>
  <rect x="430" y="100" width="250" height="180" rx="16" fill="#F3F0E9" stroke="#E6DFD5"/>
  <rect x="440" y="116" width="150" height="10" rx="5" fill="#E0416E"/>
  <rect x="440" y="138" width="190" height="10" rx="5" fill="#D1D5DB"/>
  <rect x="440" y="160" width="120" height="10" rx="5" fill="#D1D5DB"/>
  <rect x="440" y="190" width="180" height="8" rx="4" fill="#D1D5DB"/>
  <rect x="440" y="208" width="180" height="8" rx="4" fill="#D1D5DB"/>
  <rect x="440" y="226" width="120" height="8" rx="4" fill="#D1D5DB"/>
  <rect x="700" y="100" width="200" height="180" rx="16" fill="#F9F5FF" stroke="#E5D9FF"/>
  <rect x="720" y="122" width="80" height="10" rx="5" fill="#111827" opacity="0.6"/>
  <rect x="720" y="142" width="140" height="10" rx="5" fill="#D1D5DB"/>
  <rect x="720" y="162" width="120" height="10" rx="5" fill="#D1D5DB"/>
  <rect x="720" y="182" width="90" height="10" rx="5" fill="#D1D5DB"/>
  <rect x="720" y="222" width="80" height="28" rx="10" fill="#E0416E" opacity="0.8"/>
  <rect x="64" y="316" width="832" height="170" rx="16" fill="#FFFFFF" stroke="#E6DFD5"/>
  <rect x="80" y="338" width="90" height="10" rx="5" fill="#9CA3AF"/>
  <rect x="80" y="356" width="130" height="10" rx="5" fill="#D1D5DB"/>
  <rect x="80" y="374" width="160" height="10" rx="5" fill="#D1D5DB"/>
  <rect x="260" y="338" width="120" height="12" rx="6" fill="#E5E7EB"/>
  <rect x="410" y="338" width="180" height="12" rx="6" fill="#E5E7EB"/>
  <rect x="620" y="338" width="160" height="12" rx="6" fill="#E5E7EB"/>
  <rect x="260" y="364" width="140" height="10" rx="5" fill="#D1D5DB"/>
  <rect x="410" y="364" width="90" height="10" rx="5" fill="#D1D5DB"/>
  <rect x="620" y="364" width="110" height="10" rx="5" fill="#D1D5DB"/>
  <rect x="260" y="388" width="90" height="10" rx="5" fill="#D1D5DB"/>
  <rect x="410" y="388" width="120" height="10" rx="5" fill="#D1D5DB"/>
  <rect x="620" y="388" width="150" height="10" rx="5" fill="#D1D5DB"/>
</svg>
