<svg width="28" height="28" viewBox="0 0 28 28" fill="none" xmlns="http://www.w3.org/2000/svg">
<path fill-rule="evenodd" clip-rule="evenodd" d="M18.6409 15.8556C18.5266 15.8556 18.4213 15.8724 18.327 15.905C17.5461 16.1777 17.0806 16.6971 16.6708 17.1539C16.2933 17.5755 15.9365 17.9724 15.3386 18.1744L15.2698 18.1857C14.3814 18.1857 11.987 16.3036 10.3423 14.3123C9.22495 12.9597 9.00412 12.2199 9.04998 11.9965C9.26275 11.3993 9.66619 11.0484 10.0934 10.677C10.5589 10.2725 11.0855 9.81414 11.3623 9.04583C11.4371 8.83796 11.6651 8.20558 9.98809 5.86635C8.50852 3.80233 5.71245 0.75 4.40997 0.75C4.25327 0.75 4.11185 0.786805 3.98912 0.858743C2.10865 1.97127 1.03592 3.49576 0.800222 5.38998C0.161934 10.5193 5.77361 16.6541 8.2155 19.0548C10.4493 21.2497 16.1875 26.3569 21.2148 26.3569C23.5255 26.3569 25.3499 25.2841 26.6392 23.1661C26.9229 22.6997 26.5853 22.1109 26.4736 21.9172C25.3338 19.9352 20.3031 15.8556 18.6409 15.8556Z" stroke="black" stroke-width="1.5"/>
</svg>
